<?xml version="1.0" encoding="utf-8"?>
<!-- Generator: Adobe Illustrator 16.0.0, SVG Export Plug-In . SVG Version: 6.00 Build 0)  -->
<!DOCTYPE svg PUBLIC "-//W3C//DTD SVG 1.1//EN" "http://www.w3.org/Graphics/SVG/1.1/DTD/svg11.dtd">
<svg version="1.1" id="Layer_1" xmlns="http://www.w3.org/2000/svg" xmlns:xlink="http://www.w3.org/1999/xlink" x="0px" y="0px"
	 width="72px" height="72px" viewBox="0 0 72 72" enable-background="new 0 0 72 72" xml:space="preserve">
<g id="Layer_1_1_" display="none">
	<g display="inline">
		<path fill="#80F5F2" d="M22.449,37.229L22.449,37.229c0.197-0.261,0.316-0.58,0.316-0.931c0-0.545-0.281-1.023-0.706-1.301
			l-4.667-4.477c-0.628-0.603-1.626-0.583-2.229,0.046c-0.604,0.628-0.583,1.626,0.046,2.229l3.709,3.558l-3.754,3.906
			c-0.604,0.628-0.583,1.626,0.044,2.229c0.306,0.293,0.699,0.438,1.092,0.438c0.414,0,0.827-0.16,1.137-0.482l4.766-4.959
			c0.088-0.072,0.168-0.154,0.238-0.248L22.449,37.229z"/>
		<path fill="#80F5F2" d="M29.478,39.969h-5.566c-0.87,0-1.576,0.706-1.576,1.576c0,0.871,0.706,1.576,1.576,1.576h5.566
			c0.869,0,1.576-0.705,1.576-1.576C31.053,40.675,30.347,39.969,29.478,39.969z"/>
		<path fill="#80F5F2" d="M58.835,24.08c1.263-4.877,2.522-9.754,3.784-14.631c0.515-1.982-0.576-3.913-2.523-4.437
			c-2.008-0.539-4.021-1.053-6.037-1.563c-0.936-0.236-1.822-0.082-2.672,0.398c-0.863,0.526-1.419,1.288-1.676,2.284
			C48.17,12.1,46.624,18.07,45.079,24.04H13.472c-3.373,0-6.117,2.743-6.117,6.117v31.907c0,3.373,2.743,6.117,6.117,6.117h44.686
			c3.373,0,6.115-2.744,6.115-6.117V30.157C64.273,27.014,61.891,24.419,58.835,24.08z M51.693,10.745
			c0.328-1.266,0.656-2.534,0.983-3.801c0.119-0.461,0.341-0.59,0.804-0.471c1.895,0.49,3.789,0.979,5.684,1.469
			c0.449,0.116,0.582,0.342,0.468,0.787c-0.373,1.44-0.745,2.879-1.118,4.318c-0.02,0.069-0.039,0.135-0.053,0.177
			c-2.318-0.599-4.625-1.195-6.965-1.801C51.559,11.21,51.633,10.978,51.693,10.745z M51.02,13.518
			c2.275,0.59,4.578,1.187,6.881,1.784c-0.09,0.342-0.188,0.718-0.277,1.077c-2.291-0.592-4.596-1.189-6.885-1.781
			C50.83,14.244,50.927,13.869,51.02,13.518z M50.203,16.676c2.271,0.589,4.576,1.184,6.855,1.774
			c-0.088,0.337-0.188,0.718-0.281,1.081c-2.264-0.586-4.57-1.182-6.857-1.774C50.014,17.402,50.111,17.026,50.203,16.676z
			 M56.246,21.589c-0.211,0.816-0.423,1.635-0.635,2.451l0,0c-0.271,1.05-0.543,2.102-0.815,3.153l0,0
			c-2.003,7.741-4.009,15.487-6.011,23.229c-2.264-0.587-4.564-1.184-6.836-1.771c1.849-7.146,3.701-14.301,5.553-21.458l0,0
			c0.137-0.527,0.271-1.054,0.408-1.581c0.5-1.932,1-3.864,1.5-5.794C51.67,20.405,53.973,21,56.246,21.589z M48.25,52.477
			c-0.338,0.771-0.752,1.496-1.342,2.106c-0.584,0.604-1.188,1.187-1.777,1.785c-0.107,0.11-0.201,0.142-0.354,0.103
			c-0.756-0.205-1.514-0.4-2.272-0.589c-0.137-0.034-0.2-0.094-0.237-0.229c-0.226-0.801-0.463-1.6-0.683-2.399
			c-0.231-0.841-0.241-1.696-0.166-2.545L48.25,52.477z M61.121,62.064c0,1.634-1.33,2.965-2.965,2.965H13.472
			c-1.634,0-2.964-1.331-2.964-2.965V30.157c0-1.634,1.33-2.964,2.964-2.964h30.792c-0.189,0.741-0.383,1.48-0.574,2.221
			c-1.697,6.569-3.4,13.137-5.094,19.707c-0.438,1.697-0.402,3.4,0.066,5.088c0.374,1.343,0.762,2.684,1.15,4.021
			c0.194,0.677,0.369,1.362,0.619,2.02c0.402,1.059,1.365,1.695,2.428,1.667c0.789-0.022,1.434-0.372,1.981-0.921
			c1.375-1.371,2.757-2.738,4.12-4.12c1.229-1.24,2.08-2.709,2.521-4.396c1.174-4.485,2.326-8.977,3.488-13.461
			c1.021-3.943,2.038-7.886,3.059-11.829h0.127c1.635,0,2.965,1.329,2.965,2.964V62.064z"/>
	</g>
</g>
<g id="Layer_2">
	<path fill="#112213" d="M46.216,34.223c-0.629-3.267-2.629-4.596-4.495-4.544c-0.011-0.116-0.03-0.229-0.051-0.342l-0.014-17.47
		c-0.005-1.482,1.194-2.692,2.678-2.698c0.715-0.003,1.393,0.275,1.902,0.778c0.51,0.507,0.792,1.181,0.795,1.894l0.021,23.642
		C46.599,35.103,46.311,34.714,46.216,34.223 M37.034,38.116c0.32,2.164,1.265,3.99,2.293,5.417c-0.463,0.772-1.349,1.3-2.368,1.304
		l-0.01,1.053v-1.053c-1.494,0-2.711-1.123-2.717-2.503l-0.027-12.211c-0.005-1.387,1.209-2.52,2.719-2.526
		c1.203,0,2.229,0.732,2.582,1.741v1.096c-0.678,0.471-1.27,1.134-1.711,1.965C36.977,33.951,36.713,35.928,37.034,38.116
		 M29.321,46.332l-0.01,1.082v-1.082c-1.476,0-2.681-1.201-2.688-2.676l-0.03-11.478c-0.006-1.483,1.195-2.692,2.686-2.699
		c1.477,0,2.684,1.201,2.689,2.677l0.03,11.479C32.005,45.118,30.803,46.327,29.321,46.332 M21.592,48.519l-0.011,1.082v-1.082
		c-1.366,0-2.5-1.031-2.664-2.355c-0.002-0.189-0.005-0.372-0.007-0.539c0-0.098-0.007-0.185-0.016-0.268l-0.029-9.931
		c-0.003-0.718,0.273-1.393,0.78-1.904c0.506-0.509,1.179-0.792,1.908-0.794c1.475,0,2.681,1.2,2.686,2.677L24.27,45.82
		C24.274,47.302,23.074,48.513,21.592,48.519 M54.115,45.381c0-5.134-2.683-7.127-4.897-8.485l-0.023-25.058
		c-0.005-1.296-0.515-2.513-1.434-3.426c-0.916-0.907-2.128-1.407-3.418-1.407h-0.019c-2.676,0.01-4.843,2.196-4.833,4.868
		l0.013,14.347c-0.75-0.459-1.641-0.728-2.602-0.728c-2.05,0.008-3.797,1.252-4.486,2.986c-0.849-0.721-1.949-1.16-3.153-1.16
		c-2.461,0.01-4.489,1.861-4.79,4.239c-0.818-0.622-1.835-0.993-2.941-0.993c-1.296,0.005-2.513,0.514-3.425,1.433
		c-0.914,0.921-1.414,2.142-1.409,3.437L16.73,45.85c0,0.157,0.009,0.313,0.026,0.468c0.106,4.325,1.108,13.41,7.28,18.518
		c0.202,0.167,0.447,0.248,0.689,0.248c0.312,0,0.62-0.134,0.835-0.395c0.379-0.46,0.316-1.143-0.145-1.523
		c-4.09-3.385-5.634-8.868-6.199-13.103c0.702,0.394,1.506,0.621,2.364,0.621h0.02c2.139-0.011,3.95-1.409,4.587-3.335
		c0.845,0.715,1.935,1.148,3.124,1.148h0.019c1.927-0.006,3.587-1.146,4.362-2.778c0.859,0.757,2.001,1.226,3.256,1.226h0.018
		c1.517-0.009,2.862-0.69,3.742-1.745c0.239,0.25,0.469,0.479,0.685,0.681c-0.01,0.006-0.02,0.015-0.028,0.021
		c-2.128,1.702-5.045,4.034-4.376,11.221c0.056,0.598,0.582,1.037,1.181,0.979c0.593-0.055,1.03-0.582,0.976-1.178
		c-0.563-6.025,1.539-7.707,3.569-9.33c0.361-0.288,0.736-0.588,1.079-0.9c0.237-0.216,0.365-0.523,0.354-0.842
		c-0.013-0.321-0.165-0.616-0.418-0.813c-0.923-0.719-3.982-3.366-4.553-7.233c-0.328-2.244,0.189-5.571,2.377-5.944
		c1.176-0.197,2.171,0.89,2.536,2.776c0.375,1.934,1.956,2.879,3.483,3.795c2.15,1.291,4.378,2.625,4.378,6.977
		c0.002,0.107,0.208,10.831-3.929,18.219c-0.293,0.522-0.105,1.182,0.414,1.474c0.168,0.094,0.351,0.138,0.528,0.138
		c0.38,0,0.747-0.199,0.946-0.554C54.335,56.785,54.125,45.817,54.115,45.381"/>
</g>
</svg>
